<mxfile host="app.diagrams.net" modified="2023-05-01T03:37:20.798Z" agent="Mozilla/5.0 (Windows NT 10.0; Win64; x64) AppleWebKit/537.36 (KHTML, like Gecko) Chrome/112.0.0.0 Safari/537.36" version="21.2.3" etag="ArN4mnB6G1nCNOEeikxw" type="github">
  <diagram name="Page-1" id="Alo2ejDdO5nfX-_a1RqR">
    <mxGraphModel>
      <root>
        <mxCell id="0" />
        <mxCell id="1" parent="0" />
      </root>
    </mxGraphModel>
  </diagram>
</mxfile>
